<?xml version="1.0" encoding="UTF-8" standalone="no"?>
<!DOCTYPE svg PUBLIC "-//W3C//DTD SVG 1.1//EN" "http://www.w3.org/Graphics/SVG/1.1/DTD/svg11.dtd">
<svg width="100%" height="100%" viewBox="0 0 4167 4172" version="1.1" xmlns="http://www.w3.org/2000/svg" xmlns:xlink="http://www.w3.org/1999/xlink" xml:space="preserve" xmlns:serif="http://www.serif.com/" style="fill-rule:evenodd;clip-rule:evenodd;stroke-linejoin:round;stroke-miterlimit:2;">
    <g transform="matrix(1.50054,0,0,1.502341,-283.602089,-375.585164)">
        <path d="M1577.5,250C2343.834,250 2966,872.166 2966,1638.5C2966,2404.834 2343.834,3027 1577.5,3027C811.166,3027 189,2404.834 189,1638.5C189,872.166 811.166,250 1577.5,250ZM1545.845,930.272L1631.147,930.272L1631.147,652.705L1545.845,652.705L1545.845,930.272ZM1945.701,2332.75L1945.701,2610.983L2031.003,2610.983L2031.003,2332.75L1945.701,2332.75ZM2178.95,2264.856L2178.95,1962.661L1294.602,1962.661L1294.602,1300.361L2178.95,1300.361L2178.95,998.166L1260.723,998.166C1191.952,998.166 1125.999,1025.462 1077.384,1074.044C1028.768,1122.627 1001.474,1188.515 1001.51,1257.203L1001.905,2008.029C1001.98,2149.893 1117.142,2264.856 1259.175,2264.856L2178.95,2264.856ZM1631.147,2614.976L1631.147,2337.409L1545.845,2337.409L1545.845,2614.976L1631.147,2614.976ZM1945.701,932.934L2031.003,932.934L2031.003,654.702L1945.701,654.702L1945.701,932.934ZM1145.989,932.934L1231.291,932.934L1231.291,654.702L1145.989,654.702L1145.989,932.934ZM1231.291,2610.983L1231.291,2332.75L1145.989,2332.75L1145.989,2610.983L1231.291,2610.983Z" style="fill:rgb(180,0,1);"/>
    </g>
</svg>
