<?xml version="1.0" encoding="UTF-8" standalone="no"?>
<!DOCTYPE svg PUBLIC "-//W3C//DTD SVG 1.1//EN" "http://www.w3.org/Graphics/SVG/1.1/DTD/svg11.dtd">
<svg width="100%" height="100%" viewBox="0 0 755 273" version="1.1" xmlns="http://www.w3.org/2000/svg" xmlns:xlink="http://www.w3.org/1999/xlink" xml:space="preserve" xmlns:serif="http://www.serif.com/" style="fill-rule:evenodd;clip-rule:evenodd;stroke-linejoin:round;stroke-miterlimit:2;">
    <g transform="matrix(1,0,0,1,-262.85,-246.04)">
        <g>
            <g>
                <g>
                    <path d="M339.06,431.99L344.02,402.09L353.41,402.09L355.98,415.81C356.09,416.45 356.18,417.28 356.27,418.31C356.36,419.34 356.44,420.43 356.51,421.61C356.58,422.79 356.65,423.93 356.7,425.04C356.75,426.15 356.79,427.11 356.8,427.91L355.6,427.91C355.89,427.08 356.25,426.11 356.67,425C357.09,423.89 357.53,422.75 357.99,421.58C358.45,420.41 358.9,419.32 359.32,418.3C359.75,417.28 360.11,416.45 360.4,415.81L367.46,402.09L376.89,402.09L371.93,431.99L365.77,431.99L368.1,417.91C368.22,417.23 368.37,416.39 368.56,415.4C368.75,414.41 368.95,413.35 369.16,412.21C369.37,411.07 369.59,409.94 369.81,408.8C370.03,407.66 370.22,406.61 370.38,405.65L370.78,405.65C370.33,406.77 369.84,407.93 369.34,409.11C368.84,410.29 368.33,411.44 367.84,412.55C367.34,413.66 366.88,414.68 366.46,415.6C366.03,416.52 365.66,417.29 365.36,417.91L358.08,431.99L352.92,431.99L350.21,417.91C350.08,417.09 349.92,416.02 349.75,414.69C349.58,413.36 349.4,411.9 349.23,410.31C349.06,408.72 348.9,407.17 348.75,405.66L349.25,405.66C349.09,406.65 348.93,407.72 348.77,408.86C348.61,410 348.45,411.14 348.29,412.27C348.13,413.4 347.98,414.46 347.84,415.44C347.7,416.42 347.58,417.25 347.47,417.92L345.14,432L339.06,432L339.06,431.99Z" style="fill:white;fill-rule:nonzero;"/>
                    <path d="M377.26,431.99L392.43,402.09L400.46,402.09L405.98,431.99L399.42,431.99L397.03,417.56C396.78,415.77 396.53,413.75 396.29,411.5C396.05,409.25 395.82,406.82 395.61,404.2L396.93,404.2C395.89,406.75 394.9,409.16 393.98,411.4C393.06,413.65 392.16,415.7 391.29,417.56L384.27,431.99L377.26,431.99ZM384.78,425.05L385.58,420.26L401.51,420.26L400.73,425.05L384.78,425.05Z" style="fill:white;fill-rule:nonzero;"/>
                    <path d="M411.3,431.99L416.26,402.09L423.04,402.09L429.96,417.22C430.29,417.96 430.63,418.77 430.97,419.67C431.31,420.57 431.65,421.58 431.99,422.7C432.33,423.82 432.65,425.1 432.94,426.53L432.38,426.53C432.46,425.42 432.56,424.24 432.69,422.99C432.82,421.74 432.95,420.54 433.1,419.39C433.25,418.24 433.39,417.26 433.52,416.44L435.89,402.09L442.15,402.09L437.19,431.99L430.41,431.99L424.11,418.27C423.65,417.27 423.24,416.29 422.88,415.33C422.51,414.37 422.13,413.3 421.74,412.11C421.34,410.92 420.87,409.5 420.33,407.86L421.05,407.86C420.89,409.36 420.74,410.77 420.59,412.09C420.44,413.41 420.31,414.6 420.19,415.65C420.07,416.7 419.95,417.57 419.83,418.25L417.56,431.99L411.3,431.99Z" style="fill:white;fill-rule:nonzero;"/>
                    <path d="M456.85,432.41C454.33,432.41 452.2,431.94 450.45,431C448.7,430.06 447.43,428.75 446.66,427.07C445.88,425.39 445.68,423.47 446.04,421.3L449.23,402.1L455.35,402.1L452.2,421.2C452.01,422.36 452.09,423.38 452.43,424.25C452.77,425.12 453.34,425.79 454.14,426.28C454.94,426.76 455.93,427 457.12,427C458.42,427 459.6,426.73 460.67,426.18C461.74,425.63 462.63,424.89 463.33,423.95C464.03,423.01 464.48,421.96 464.66,420.8L467.75,402.1L473.89,402.1L470.66,421.7C470.3,423.88 469.49,425.77 468.22,427.38C466.96,428.98 465.35,430.23 463.4,431.1C461.45,431.97 459.27,432.41 456.85,432.41Z" style="fill:white;fill-rule:nonzero;"/>
                    <path d="M473.46,431.99L488.63,402.09L496.66,402.09L502.18,431.99L495.62,431.99L493.23,417.56C492.98,415.77 492.73,413.75 492.49,411.5C492.25,409.25 492.02,406.82 491.81,404.2L493.13,404.2C492.09,406.75 491.1,409.16 490.18,411.4C489.26,413.65 488.36,415.7 487.49,417.56L480.47,431.99L473.46,431.99ZM480.98,425.05L481.78,420.26L497.71,420.26L496.93,425.05L480.98,425.05Z" style="fill:white;fill-rule:nonzero;"/>
                    <path d="M507.51,431.99L512.47,402.09L518.59,402.09L514.48,426.91L527.38,426.91L526.54,431.99L507.51,431.99Z" style="fill:white;fill-rule:nonzero;"/>
                    <path d="M554.83,402.1L549.87,432L543.75,432L548.71,402.1L554.83,402.1ZM555.09,432L546.52,432L547.38,426.72L554.84,426.72C556.77,426.72 558.43,426.38 559.85,425.7C561.26,425.02 562.42,423.96 563.32,422.52C564.22,421.08 564.85,419.25 565.22,417.03C565.59,414.8 565.57,412.97 565.16,411.54C564.74,410.12 563.95,409.07 562.78,408.39C561.61,407.72 560.07,407.38 558.18,407.38L550.46,407.38L551.34,402.1L558.92,402.1C561.93,402.1 564.45,402.7 566.47,403.9C568.5,405.1 569.94,406.81 570.8,409.05C571.66,411.28 571.83,413.95 571.31,417.06C570.79,420.18 569.83,422.85 568.42,425.09C567.02,427.32 565.2,429.04 562.96,430.23C560.73,431.42 558.1,432.02 555.07,432.02L555.09,432Z" style="fill:white;fill-rule:nonzero;"/>
                    <path d="M575.06,431.99L580.02,402.09L591.68,402.09C593.97,402.09 595.84,402.5 597.29,403.3C598.74,404.11 599.76,405.24 600.36,406.7C600.95,408.16 601.09,409.86 600.75,411.82C600.43,413.79 599.73,415.48 598.64,416.91C597.56,418.33 596.14,419.42 594.41,420.18C592.68,420.94 590.65,421.31 588.35,421.31L580.44,421.31L581.26,416.35L588.18,416.35C589.42,416.35 590.48,416.18 591.35,415.84C592.22,415.5 592.91,414.99 593.43,414.32C593.95,413.64 594.28,412.81 594.44,411.82C594.69,410.28 594.42,409.12 593.63,408.33C592.84,407.54 591.52,407.15 589.69,407.15L585.3,407.15L581.19,431.99L575.06,431.99ZM591.69,431.99L586.67,418.39L593.29,418.39L598.47,431.99L591.69,431.99Z" style="fill:white;fill-rule:nonzero;"/>
                    <path d="M614.76,402.1L609.8,432L603.68,432L608.64,402.1L614.76,402.1Z" style="fill:white;fill-rule:nonzero;"/>
                    <path d="M625.61,431.99L620.09,402.09L626.89,402.09L629.28,416.52C629.57,418.43 629.83,420.46 630.04,422.61C630.25,424.76 630.47,427.12 630.68,429.7L629.38,429.7C630.44,427.13 631.42,424.76 632.34,422.58C633.26,420.4 634.16,418.38 635.04,416.52L642.04,402.09L648.8,402.09L633.61,431.99L625.6,431.99L625.61,431.99Z" style="fill:white;fill-rule:nonzero;"/>
                    <path d="M660.26,402.1L655.3,432L649.18,432L654.14,402.1L660.26,402.1Z" style="fill:white;fill-rule:nonzero;"/>
                    <path d="M662.37,431.99L667.33,402.09L674.11,402.09L681.03,417.22C681.36,417.96 681.7,418.77 682.04,419.67C682.38,420.57 682.72,421.58 683.06,422.7C683.4,423.82 683.72,425.1 684.01,426.53L683.45,426.53C683.53,425.42 683.63,424.24 683.76,422.99C683.89,421.74 684.02,420.54 684.17,419.39C684.32,418.24 684.46,417.26 684.59,416.44L686.96,402.09L693.22,402.09L688.26,431.99L681.48,431.99L675.18,418.27C674.72,417.27 674.31,416.29 673.95,415.33C673.58,414.37 673.2,413.3 672.81,412.11C672.41,410.92 671.94,409.5 671.4,407.86L672.12,407.86C671.96,409.36 671.81,410.77 671.66,412.09C671.51,413.41 671.38,414.6 671.26,415.65C671.14,416.7 671.02,417.57 670.9,418.25L668.63,431.99L662.37,431.99Z" style="fill:white;fill-rule:nonzero;"/>
                    <path d="M708.86,432.4C706.37,432.4 704.23,431.91 702.42,430.93C700.61,429.95 699.22,428.55 698.24,426.73C697.26,424.91 696.77,422.74 696.77,420.23C696.77,417.72 697.16,415.45 697.93,413.23C698.71,411.01 699.81,409.03 701.25,407.3C702.69,405.57 704.41,404.2 706.43,403.21C708.44,402.21 710.69,401.71 713.16,401.71C714.82,401.71 716.35,401.94 717.75,402.41C719.15,402.88 720.37,403.55 721.4,404.44C722.43,405.33 723.23,406.38 723.79,407.62C724.35,408.86 724.61,410.24 724.55,411.76L718.33,411.76C718.24,411.04 718.06,410.39 717.79,409.82C717.52,409.25 717.17,408.77 716.72,408.37C716.27,407.97 715.74,407.66 715.13,407.46C714.52,407.26 713.81,407.15 713,407.15C711.39,407.15 709.97,407.53 708.71,408.27C707.46,409.02 706.41,410.02 705.55,411.27C704.69,412.52 704.04,413.91 703.59,415.44C703.14,416.97 702.92,418.52 702.92,420.08C702.92,422.31 703.47,424.02 704.56,425.2C705.66,426.38 707.18,426.97 709.13,426.97C710.63,426.97 711.97,426.69 713.14,426.14C714.32,425.59 715.28,424.81 716.03,423.81C716.78,422.81 717.26,421.66 717.48,420.35L718.68,420.73L710.92,420.73L711.68,416.08L724.12,416.08L723.48,420.01C723.16,421.96 722.56,423.71 721.69,425.24C720.82,426.77 719.74,428.07 718.44,429.14C717.14,430.21 715.68,431.02 714.05,431.58C712.42,432.13 710.69,432.41 708.85,432.41L708.86,432.4Z" style="fill:white;fill-rule:nonzero;"/>
                    <path d="M739.19,431.99L744.15,402.09L750.27,402.09L746.16,426.91L759.06,426.91L758.22,431.99L739.19,431.99Z" style="fill:white;fill-rule:nonzero;"/>
                    <path d="M764.07,431.99L769.03,402.09L789.03,402.09L788.19,407.17L774.31,407.17L773.13,414.39L785.95,414.39L785.11,419.39L772.29,419.39L771.05,426.91L784.97,426.91L784.13,431.99L764.07,431.99Z" style="fill:white;fill-rule:nonzero;"/>
                    <path d="M802.18,432.44C799.79,432.44 797.73,432.07 796.01,431.34C794.29,430.61 793.02,429.51 792.2,428.07C791.38,426.63 791.11,424.85 791.41,422.73L797.37,422.73C797.28,423.73 797.44,424.57 797.85,425.25C798.27,425.93 798.88,426.43 799.69,426.77C800.5,427.1 801.46,427.27 802.57,427.27C803.68,427.27 804.63,427.11 805.5,426.8C806.37,426.49 807.08,426.04 807.63,425.47C808.18,424.89 808.51,424.23 808.63,423.46C808.75,422.78 808.65,422.21 808.32,421.74C807.99,421.28 807.47,420.88 806.76,420.56C806.05,420.24 805.17,419.94 804.11,419.67L800.94,418.85C798.59,418.26 796.78,417.32 795.53,416.02C794.28,414.72 793.83,412.96 794.2,410.74C794.48,408.93 795.19,407.36 796.32,406C797.45,404.65 798.89,403.6 800.64,402.84C802.39,402.09 804.35,401.71 806.52,401.71C808.69,401.71 810.62,402.09 812.21,402.84C813.79,403.6 814.98,404.64 815.75,405.98C816.53,407.32 816.78,408.87 816.51,410.63L810.61,410.63C810.69,409.44 810.33,408.51 809.53,407.85C808.73,407.19 807.56,406.86 806.02,406.86C804.98,406.86 804.06,407.01 803.28,407.3C802.5,407.59 801.88,408 801.41,408.52C800.94,409.04 800.66,409.64 800.54,410.31C800.42,411.03 800.54,411.64 800.9,412.13C801.26,412.62 801.78,413.02 802.47,413.32C803.15,413.63 803.9,413.88 804.72,414.08L807.29,414.74C808.49,415.03 809.6,415.42 810.6,415.89C811.6,416.37 812.46,416.95 813.16,417.66C813.86,418.37 814.36,419.19 814.66,420.15C814.95,421.11 815,422.22 814.8,423.49C814.51,425.3 813.82,426.87 812.75,428.21C811.68,429.55 810.26,430.59 808.49,431.33C806.72,432.07 804.62,432.43 802.2,432.43L802.18,432.44Z" style="fill:white;fill-rule:nonzero;"/>
                    <path d="M830.71,432.44C828.32,432.44 826.26,432.07 824.54,431.34C822.82,430.61 821.55,429.51 820.73,428.07C819.91,426.63 819.64,424.85 819.94,422.73L825.9,422.73C825.81,423.73 825.97,424.57 826.38,425.25C826.8,425.93 827.41,426.43 828.22,426.77C829.03,427.1 829.99,427.27 831.1,427.27C832.21,427.27 833.16,427.11 834.03,426.8C834.9,426.49 835.61,426.04 836.16,425.47C836.71,424.89 837.04,424.23 837.16,423.46C837.28,422.78 837.18,422.21 836.85,421.74C836.52,421.28 836,420.88 835.29,420.56C834.58,420.24 833.7,419.94 832.64,419.67L829.47,418.85C827.12,418.26 825.31,417.32 824.06,416.02C822.81,414.72 822.36,412.96 822.73,410.74C823.01,408.93 823.72,407.36 824.85,406C825.98,404.65 827.42,403.6 829.17,402.84C830.92,402.09 832.88,401.71 835.05,401.71C837.22,401.71 839.15,402.09 840.74,402.84C842.32,403.6 843.51,404.64 844.28,405.98C845.06,407.32 845.31,408.87 845.04,410.63L839.14,410.63C839.22,409.44 838.86,408.51 838.06,407.85C837.26,407.19 836.09,406.86 834.55,406.86C833.51,406.86 832.59,407.01 831.81,407.3C831.03,407.59 830.41,408 829.94,408.52C829.47,409.04 829.19,409.64 829.07,410.31C828.95,411.03 829.07,411.64 829.43,412.13C829.79,412.62 830.31,413.02 831,413.32C831.68,413.63 832.43,413.88 833.25,414.08L835.82,414.74C837.02,415.03 838.13,415.42 839.13,415.89C840.13,416.37 840.99,416.95 841.69,417.66C842.39,418.37 842.89,419.19 843.19,420.15C843.48,421.11 843.53,422.22 843.33,423.49C843.04,425.3 842.35,426.87 841.28,428.21C840.21,429.55 838.79,430.59 837.02,431.33C835.25,432.07 833.15,432.43 830.73,432.43L830.71,432.44Z" style="fill:white;fill-rule:nonzero;"/>
                    <path d="M861.35,432.4C858.98,432.4 856.9,431.92 855.1,430.97C853.3,430.02 851.9,428.62 850.89,426.8C849.88,424.97 849.38,422.77 849.38,420.19C849.38,417.74 849.76,415.41 850.52,413.19C851.28,410.97 852.38,409 853.82,407.28C855.26,405.56 856.99,404.2 859.01,403.21C861.03,402.21 863.29,401.71 865.79,401.71C868.16,401.71 870.23,402.19 872.02,403.14C873.81,404.1 875.21,405.48 876.22,407.3C877.23,409.12 877.75,411.33 877.75,413.92C877.75,416.37 877.37,418.7 876.6,420.92C875.83,423.14 874.73,425.11 873.29,426.83C871.85,428.55 870.13,429.91 868.12,430.9C866.11,431.9 863.86,432.4 861.36,432.4L861.35,432.4ZM861.61,426.96C863.26,426.96 864.7,426.58 865.94,425.81C867.18,425.04 868.23,424.02 869.07,422.75C869.91,421.48 870.54,420.07 870.96,418.54C871.38,417 871.58,415.46 871.58,413.93C871.58,412.4 871.34,411.2 870.86,410.2C870.38,409.2 869.68,408.44 868.77,407.92C867.86,407.41 866.78,407.15 865.54,407.15C863.88,407.15 862.43,407.53 861.19,408.3C859.95,409.07 858.9,410.09 858.06,411.37C857.22,412.65 856.59,414.05 856.16,415.57C855.74,417.1 855.53,418.63 855.53,420.16C855.53,421.69 855.77,422.89 856.26,423.9C856.75,424.91 857.45,425.67 858.36,426.19C859.27,426.71 860.35,426.96 861.61,426.96Z" style="fill:white;fill-rule:nonzero;"/>
                    <path d="M881.27,431.99L886.23,402.09L893.01,402.09L899.93,417.22C900.26,417.96 900.6,418.77 900.94,419.67C901.28,420.57 901.62,421.58 901.96,422.7C902.3,423.82 902.62,425.1 902.91,426.53L902.35,426.53C902.43,425.42 902.53,424.24 902.66,422.99C902.79,421.74 902.92,420.54 903.07,419.39C903.22,418.24 903.36,417.26 903.49,416.44L905.86,402.09L912.12,402.09L907.16,431.99L900.38,431.99L894.08,418.27C893.63,417.27 893.21,416.29 892.85,415.33C892.48,414.37 892.1,413.3 891.71,412.11C891.32,410.92 890.84,409.5 890.29,407.86L891.01,407.86C890.85,409.36 890.7,410.77 890.55,412.09C890.4,413.41 890.27,414.6 890.15,415.65C890.03,416.7 889.91,417.57 889.79,418.25L887.52,431.99L881.26,431.99L881.27,431.99Z" style="fill:white;fill-rule:nonzero;"/>
                    <path d="M925.53,432.44C923.14,432.44 921.08,432.07 919.36,431.34C917.64,430.61 916.37,429.51 915.55,428.07C914.73,426.63 914.46,424.85 914.76,422.73L920.72,422.73C920.63,423.73 920.79,424.57 921.2,425.25C921.62,425.93 922.23,426.43 923.04,426.77C923.85,427.1 924.81,427.27 925.92,427.27C927.03,427.27 927.98,427.11 928.85,426.8C929.72,426.49 930.43,426.04 930.98,425.47C931.53,424.89 931.86,424.23 931.98,423.46C932.1,422.78 932,422.21 931.67,421.74C931.34,421.28 930.82,420.88 930.11,420.56C929.4,420.24 928.52,419.94 927.46,419.67L924.29,418.85C921.94,418.26 920.13,417.32 918.88,416.02C917.63,414.72 917.18,412.96 917.55,410.74C917.83,408.93 918.54,407.36 919.67,406C920.8,404.65 922.24,403.6 923.99,402.84C925.74,402.09 927.7,401.71 929.87,401.71C932.04,401.71 933.97,402.09 935.56,402.84C937.14,403.6 938.33,404.64 939.1,405.98C939.88,407.32 940.13,408.87 939.86,410.63L933.96,410.63C934.04,409.44 933.68,408.51 932.88,407.85C932.08,407.19 930.91,406.86 929.37,406.86C928.33,406.86 927.41,407.01 926.63,407.3C925.85,407.59 925.23,408 924.76,408.52C924.29,409.04 924.01,409.64 923.89,410.31C923.77,411.03 923.89,411.64 924.25,412.13C924.61,412.62 925.13,413.02 925.82,413.32C926.5,413.63 927.25,413.88 928.07,414.08L930.64,414.74C931.84,415.03 932.95,415.42 933.95,415.89C934.95,416.37 935.81,416.95 936.51,417.66C937.21,418.37 937.71,419.19 938.01,420.15C938.3,421.11 938.35,422.22 938.15,423.49C937.86,425.3 937.17,426.87 936.1,428.21C935.03,429.55 933.61,430.59 931.84,431.33C930.07,432.07 927.97,432.43 925.55,432.43L925.53,432.44Z" style="fill:white;fill-rule:nonzero;"/>
                </g>
                <g>
                    <path d="M272.57,381.04C270.78,381.04 269.14,380.6 267.67,379.72C266.22,378.85 265.04,377.68 264.17,376.22C263.29,374.75 262.85,373.1 262.85,371.32L262.85,346.34C262.85,344.55 263.29,342.91 264.17,341.44C265.04,339.99 266.21,338.81 267.67,337.94C269.14,337.06 270.79,336.62 272.57,336.62L307.15,336.62L307.15,347.81L274.93,347.81C274.68,347.81 274.35,347.84 274.17,348.01C274.05,348.12 273.98,348.39 273.98,348.75L273.98,368.9C273.98,369.25 274.05,369.5 274.19,369.63C274.33,369.77 274.58,369.84 274.93,369.84L307.15,369.84L307.15,381.03L272.57,381.03L272.57,381.04Z" style="fill:white;fill-rule:nonzero;"/>
                    <path d="M272.57,380.04C270.96,380.04 269.5,379.65 268.18,378.86C266.86,378.07 265.81,377.02 265.03,375.71C264.24,374.39 263.85,372.93 263.85,371.32L263.85,346.34C263.85,344.73 264.24,343.27 265.03,341.95C265.82,340.63 266.87,339.58 268.18,338.8C269.5,338.01 270.96,337.62 272.57,337.62L306.15,337.62L306.15,346.81L274.93,346.81C274.3,346.81 273.82,346.97 273.49,347.28C273.16,347.6 272.99,348.09 272.99,348.75L272.99,368.9C272.99,369.53 273.16,370.01 273.49,370.34C273.82,370.67 274.3,370.84 274.93,370.84L306.15,370.84L306.15,380.03L272.57,380.03L272.57,380.04Z" style="fill:white;fill-rule:nonzero;"/>
                    <path d="M319.58,381.04L319.58,336.56L330.71,336.56L330.71,369.85L364,369.85L364,381.04L319.58,381.04Z" style="fill:white;fill-rule:nonzero;"/>
                    <path d="M320.58,380.04L320.58,337.57L329.71,337.57L329.71,370.85L362.99,370.85L362.99,380.04L320.58,380.04Z" style="fill:white;fill-rule:nonzero;"/>
                    <path d="M383.26,381.04C381.52,381.04 379.88,380.6 378.39,379.72C376.91,378.85 375.72,377.66 374.85,376.18C373.98,374.7 373.53,373.06 373.53,371.31L373.53,336.61L384.66,336.61L384.66,369.83L406.69,369.83L406.69,336.61L417.94,336.61L417.94,371.31C417.94,373.06 417.48,374.7 416.59,376.19C415.7,377.66 414.52,378.85 413.07,379.71C411.6,380.59 409.97,381.03 408.23,381.03L383.25,381.03L383.26,381.04Z" style="fill:white;fill-rule:nonzero;"/>
                    <path d="M378.9,378.86C377.57,378.07 376.5,377.01 375.72,375.68C374.93,374.35 374.54,372.89 374.54,371.32L374.54,337.62L383.67,337.62L383.67,370.84L407.7,370.84L407.7,337.62L416.95,337.62L416.95,371.32C416.95,372.89 416.55,374.35 415.74,375.68C414.94,377.02 413.87,378.08 412.56,378.86C411.24,379.65 409.8,380.04 408.23,380.04L383.25,380.04C381.68,380.04 380.23,379.65 378.89,378.86L378.9,378.86Z" style="fill:white;fill-rule:nonzero;"/>
                    <path d="M445.17,381.04L445.17,347.81L428.56,347.81L428.56,336.62L472.98,336.62L472.98,347.81L456.36,347.81L456.36,381.04L445.17,381.04Z" style="fill:white;fill-rule:nonzero;"/>
                    <path d="M446.17,380.04L446.17,346.82L429.56,346.82L429.56,337.63L471.97,337.63L471.97,346.82L455.36,346.82L455.36,380.04L446.17,380.04Z" style="fill:white;fill-rule:nonzero;"/>
                    <path d="M493.36,381.04C491.57,381.04 489.93,380.6 488.46,379.72C487.01,378.85 485.83,377.68 484.96,376.22C484.08,374.75 483.64,373.1 483.64,371.32L483.64,346.34C483.64,344.55 484.08,342.91 484.96,341.44C485.83,339.99 487,338.81 488.46,337.94C489.93,337.06 491.58,336.62 493.36,336.62L527.94,336.62L527.94,347.81L495.72,347.81C495.47,347.81 495.14,347.84 494.96,348.01C494.84,348.12 494.77,348.39 494.77,348.75L494.77,368.9C494.77,369.25 494.84,369.5 494.98,369.63C495.12,369.77 495.37,369.84 495.72,369.84L527.94,369.84L527.94,381.03L493.36,381.03L493.36,381.04Z" style="fill:white;fill-rule:nonzero;"/>
                    <path d="M493.36,380.04C491.75,380.04 490.29,379.65 488.97,378.86C487.65,378.07 486.6,377.02 485.82,375.71C485.03,374.39 484.64,372.93 484.64,371.32L484.64,346.34C484.64,344.73 485.03,343.27 485.82,341.95C486.61,340.63 487.66,339.58 488.97,338.8C490.29,338.01 491.75,337.62 493.36,337.62L526.94,337.62L526.94,346.81L495.72,346.81C495.09,346.81 494.61,346.97 494.28,347.28C493.95,347.6 493.78,348.09 493.78,348.75L493.78,368.9C493.78,369.53 493.95,370.01 494.28,370.34C494.61,370.67 495.09,370.84 495.72,370.84L526.94,370.84L526.94,380.03L493.36,380.03L493.36,380.04Z" style="fill:white;fill-rule:nonzero;"/>
                    <path d="M574.53,381.04L574.53,364.42L551.5,364.42L551.5,381.04L540.37,381.04L540.37,336.62L551.5,336.62L551.5,353.24L574.53,353.24L574.53,336.62L585.66,336.62L585.66,381.04L574.53,381.04Z" style="fill:white;fill-rule:nonzero;"/>
                    <path d="M541.37,380.04L541.37,337.63L550.5,337.63L550.5,354.24L575.54,354.24L575.54,337.63L584.67,337.63L584.67,380.04L575.54,380.04L575.54,363.43L550.5,363.43L550.5,380.04L541.37,380.04Z" style="fill:white;fill-rule:nonzero;"/>
                    <path d="M659.18,381.04L659.18,367.37L637.14,367.37L637.14,381.04L626.01,381.04L626.01,346.34C626.01,344.55 626.45,342.9 627.33,341.44C628.2,339.99 629.39,338.81 630.86,337.94C632.35,337.07 633.98,336.62 635.73,336.62L660.65,336.62C662.43,336.62 664.08,337.06 665.55,337.94C667,338.81 668.18,339.98 669.07,341.43C669.97,342.9 670.42,344.55 670.42,346.34L670.42,381.04L659.17,381.04L659.18,381.04ZM659.18,356.18L659.18,347.81L637.14,347.81L637.14,356.18L659.18,356.18Z" style="fill:white;fill-rule:nonzero;"/>
                    <path d="M627.02,346.34C627.02,344.73 627.41,343.27 628.2,341.95C628.99,340.63 630.05,339.58 631.38,338.8C632.71,338.01 634.17,337.62 635.74,337.62L660.66,337.62C662.27,337.62 663.73,338.01 665.05,338.8C666.37,339.59 667.43,340.64 668.23,341.95C669.03,343.27 669.44,344.73 669.44,346.34L669.44,380.04L660.19,380.04L660.19,366.37L636.15,366.37L636.15,380.04L627.02,380.04L627.02,346.34ZM660.19,357.18L660.19,346.81L636.15,346.81L636.15,357.18L660.19,357.18Z" style="fill:white;fill-rule:nonzero;"/>
                    <path d="M693.11,381.04C691.32,381.04 689.68,380.6 688.21,379.72C686.76,378.85 685.58,377.68 684.71,376.22C683.83,374.75 683.39,373.1 683.39,371.32L683.39,346.34C683.39,344.55 683.83,342.91 684.71,341.44C685.58,339.99 686.75,338.81 688.21,337.94C689.68,337.06 691.33,336.62 693.11,336.62L727.69,336.62L727.69,347.81L695.47,347.81C695.22,347.81 694.89,347.84 694.71,348.01C694.59,348.12 694.52,348.39 694.52,348.75L694.52,368.9C694.52,369.25 694.59,369.5 694.73,369.63C694.87,369.77 695.12,369.84 695.47,369.84L727.69,369.84L727.69,381.03L693.11,381.03L693.11,381.04Z" style="fill:white;fill-rule:nonzero;"/>
                    <path d="M693.11,380.04C691.5,380.04 690.04,379.65 688.72,378.86C687.4,378.07 686.35,377.02 685.57,375.71C684.78,374.39 684.39,372.93 684.39,371.32L684.39,346.34C684.39,344.73 684.78,343.27 685.57,341.95C686.36,340.63 687.41,339.58 688.72,338.8C690.04,338.01 691.5,337.62 693.11,337.62L726.69,337.62L726.69,346.81L695.47,346.81C694.84,346.81 694.36,346.97 694.03,347.28C693.7,347.6 693.53,348.09 693.53,348.75L693.53,368.9C693.53,369.53 693.7,370.01 694.03,370.34C694.36,370.67 694.84,370.84 695.47,370.84L726.69,370.84L726.69,380.03L693.11,380.03L693.11,380.04Z" style="fill:white;fill-rule:nonzero;"/>
                    <path d="M773.35,381.04L773.35,367.37L751.31,367.37L751.31,381.04L740.18,381.04L740.18,346.34C740.18,344.55 740.62,342.9 741.5,341.44C742.37,339.99 743.56,338.81 745.03,337.94C746.52,337.07 748.15,336.62 749.9,336.62L774.82,336.62C776.6,336.62 778.25,337.06 779.72,337.94C781.17,338.81 782.35,339.98 783.24,341.43C784.14,342.9 784.59,344.55 784.59,346.34L784.59,381.04L773.34,381.04L773.35,381.04ZM773.35,356.18L773.35,347.81L751.31,347.81L751.31,356.18L773.35,356.18Z" style="fill:white;fill-rule:nonzero;"/>
                    <path d="M741.18,346.34C741.18,344.73 741.57,343.27 742.36,341.95C743.15,340.63 744.21,339.58 745.54,338.8C746.87,338.01 748.33,337.62 749.9,337.62L774.82,337.62C776.43,337.62 777.89,338.01 779.21,338.8C780.53,339.59 781.59,340.64 782.39,341.95C783.19,343.27 783.6,344.73 783.6,346.34L783.6,380.04L774.35,380.04L774.35,366.37L750.31,366.37L750.31,380.04L741.18,380.04L741.18,346.34ZM774.35,357.18L774.35,346.81L750.31,346.81L750.31,357.18L774.35,357.18Z" style="fill:white;fill-rule:nonzero;"/>
                    <path d="M797.68,381.04L797.68,336.63L832.32,336.63C834.1,336.63 835.75,337.07 837.22,337.95C838.67,338.82 839.85,339.99 840.74,341.44C841.64,342.91 842.09,344.56 842.09,346.35L842.09,371.33C842.09,373.08 841.64,374.72 840.74,376.21C839.85,377.68 838.67,378.87 837.21,379.73C835.74,380.61 834.09,381.05 832.31,381.05L797.67,381.05L797.68,381.04ZM830.85,369.85L830.85,347.82L808.76,347.82L808.76,369.85L830.85,369.85Z" style="fill:white;fill-rule:nonzero;"/>
                    <path d="M798.68,380.05L798.68,337.63L832.32,337.63C833.93,337.63 835.39,338.02 836.71,338.81C838.03,339.6 839.09,340.65 839.89,341.96C840.69,343.28 841.1,344.74 841.1,346.35L841.1,371.33C841.1,372.9 840.7,374.36 839.89,375.69C839.08,377.03 838.02,378.09 836.71,378.87C835.39,379.66 833.93,380.05 832.32,380.05L798.68,380.05ZM831.85,370.85L831.85,346.82L807.76,346.82L807.76,370.85L831.85,370.85Z" style="fill:white;fill-rule:nonzero;"/>
                    <path d="M855.05,381.04L855.05,336.62L896.23,336.62L896.23,347.81L866.3,347.81L866.3,353.24L890.39,353.24L890.39,364.42L866.3,364.42L866.3,369.85L896.23,369.85L896.23,381.04L855.05,381.04Z" style="fill:white;fill-rule:nonzero;"/>
                    <path d="M856.05,380.04L856.05,337.63L895.22,337.63L895.22,346.82L865.3,346.82L865.3,354.24L889.39,354.24L889.39,363.43L865.3,363.43L865.3,370.85L895.22,370.85L895.22,380.04L856.05,380.04Z" style="fill:white;fill-rule:nonzero;"/>
                    <path d="M945,381.04L945,354.34L931.4,370.58L917.73,354.38L917.73,381.04L906.6,381.04L906.6,336.62L917.49,336.62L931.39,353.21L945.24,336.62L956.19,336.62L956.19,381.04L945,381.04Z" style="fill:white;fill-rule:nonzero;"/>
                    <path d="M907.6,380.04L907.6,337.63L917.02,337.63L931.39,354.77L945.7,337.63L955.18,337.63L955.18,380.04L945.99,380.04L945.99,351.59L931.38,369.03L916.71,351.65L916.71,380.04L907.58,380.04L907.6,380.04Z" style="fill:white;fill-rule:nonzero;"/>
                    <path d="M985.3,381.04L985.3,364.52L964.7,336.62L978.06,336.62L990.89,352.75L1003.66,336.62L1017.14,336.62L996.49,364.58L996.49,381.04L985.3,381.04Z" style="fill:white;fill-rule:nonzero;"/>
                    <path d="M986.3,380.04L986.3,364.19L966.68,337.62L977.58,337.62L990.89,354.35L1004.14,337.62L1015.16,337.62L995.48,364.25L995.48,380.04L986.29,380.04L986.3,380.04Z" style="fill:white;fill-rule:nonzero;"/>
                </g>
            </g>
            <g transform="matrix(1,0,0,1,0,1.04)">
                <path d="M466,312.96L466,246L487,246L487,312.96L466,312.96ZM487,453.96L487,514L466,514L466,453.96L487,453.96Z" style="fill:white;"/>
            </g>
            <g transform="matrix(1,0,0,1,314,0.04)">
                <path d="M466,313.96L466,246L487,246L487,313.96L466,313.96ZM487,454.96L487,514L466,514L466,454.96L487,454.96Z" style="fill:white;"/>
            </g>
            <g transform="matrix(1,0,0,1,156.5,4.5)">
                <path d="M466,309.5L466,246L487,246L487,309.5L466,309.5ZM487,450.5L487,514L466,514L466,450.5L487,450.5Z" style="fill:white;"/>
            </g>
        </g>
    </g>
</svg>
