<?xml version="1.0" encoding="UTF-8" standalone="no"?>
<!DOCTYPE svg PUBLIC "-//W3C//DTD SVG 1.1//EN" "http://www.w3.org/Graphics/SVG/1.1/DTD/svg11.dtd">
<svg width="100%" height="100%" viewBox="0 0 755 45" version="1.1" xmlns="http://www.w3.org/2000/svg" xmlns:xlink="http://www.w3.org/1999/xlink" xml:space="preserve" xmlns:serif="http://www.serif.com/" style="fill-rule:evenodd;clip-rule:evenodd;stroke-linejoin:round;stroke-miterlimit:2;">
    <g transform="matrix(1,0,0,1,-262.85,-336.56)">
        <g>
            <g>
                <path d="M272.57,381.04C270.78,381.04 269.14,380.6 267.67,379.72C266.22,378.85 265.04,377.68 264.17,376.22C263.29,374.75 262.85,373.1 262.85,371.32L262.85,346.34C262.85,344.55 263.29,342.91 264.17,341.44C265.04,339.99 266.21,338.81 267.67,337.94C269.14,337.06 270.79,336.62 272.57,336.62L307.15,336.62L307.15,347.81L274.93,347.81C274.68,347.81 274.35,347.84 274.17,348.01C274.05,348.12 273.98,348.39 273.98,348.75L273.98,368.9C273.98,369.25 274.05,369.5 274.19,369.63C274.33,369.77 274.58,369.84 274.93,369.84L307.15,369.84L307.15,381.03L272.57,381.03L272.57,381.04Z" style="fill:white;fill-rule:nonzero;"/>
                <path d="M272.57,380.04C270.96,380.04 269.5,379.65 268.18,378.86C266.86,378.07 265.81,377.02 265.03,375.71C264.24,374.39 263.85,372.93 263.85,371.32L263.85,346.34C263.85,344.73 264.24,343.27 265.03,341.95C265.82,340.63 266.87,339.58 268.18,338.8C269.5,338.01 270.96,337.62 272.57,337.62L306.15,337.62L306.15,346.81L274.93,346.81C274.3,346.81 273.82,346.97 273.49,347.28C273.16,347.6 272.99,348.09 272.99,348.75L272.99,368.9C272.99,369.53 273.16,370.01 273.49,370.34C273.82,370.67 274.3,370.84 274.93,370.84L306.15,370.84L306.15,380.03L272.57,380.03L272.57,380.04Z" style="fill:white;fill-rule:nonzero;"/>
                <path d="M319.58,381.04L319.58,336.56L330.71,336.56L330.71,369.85L364,369.85L364,381.04L319.58,381.04Z" style="fill:white;fill-rule:nonzero;"/>
                <path d="M320.58,380.04L320.58,337.57L329.71,337.57L329.71,370.85L362.99,370.85L362.99,380.04L320.58,380.04Z" style="fill:white;fill-rule:nonzero;"/>
                <path d="M383.26,381.04C381.52,381.04 379.88,380.6 378.39,379.72C376.91,378.85 375.72,377.66 374.85,376.18C373.98,374.7 373.53,373.06 373.53,371.31L373.53,336.61L384.66,336.61L384.66,369.83L406.69,369.83L406.69,336.61L417.94,336.61L417.94,371.31C417.94,373.06 417.48,374.7 416.59,376.19C415.7,377.66 414.52,378.85 413.07,379.71C411.6,380.59 409.97,381.03 408.23,381.03L383.25,381.03L383.26,381.04Z" style="fill:white;fill-rule:nonzero;"/>
                <path d="M378.9,378.86C377.57,378.07 376.5,377.01 375.72,375.68C374.93,374.35 374.54,372.89 374.54,371.32L374.54,337.62L383.67,337.62L383.67,370.84L407.7,370.84L407.7,337.62L416.95,337.62L416.95,371.32C416.95,372.89 416.55,374.35 415.74,375.68C414.94,377.02 413.87,378.08 412.56,378.86C411.24,379.65 409.8,380.04 408.23,380.04L383.25,380.04C381.68,380.04 380.23,379.65 378.89,378.86L378.9,378.86Z" style="fill:white;fill-rule:nonzero;"/>
                <path d="M445.17,381.04L445.17,347.81L428.56,347.81L428.56,336.62L472.98,336.62L472.98,347.81L456.36,347.81L456.36,381.04L445.17,381.04Z" style="fill:white;fill-rule:nonzero;"/>
                <path d="M446.17,380.04L446.17,346.82L429.56,346.82L429.56,337.63L471.97,337.63L471.97,346.82L455.36,346.82L455.36,380.04L446.17,380.04Z" style="fill:white;fill-rule:nonzero;"/>
                <path d="M493.36,381.04C491.57,381.04 489.93,380.6 488.46,379.72C487.01,378.85 485.83,377.68 484.96,376.22C484.08,374.75 483.64,373.1 483.64,371.32L483.64,346.34C483.64,344.55 484.08,342.91 484.96,341.44C485.83,339.99 487,338.81 488.46,337.94C489.93,337.06 491.58,336.62 493.36,336.62L527.94,336.62L527.94,347.81L495.72,347.81C495.47,347.81 495.14,347.84 494.96,348.01C494.84,348.12 494.77,348.39 494.77,348.75L494.77,368.9C494.77,369.25 494.84,369.5 494.98,369.63C495.12,369.77 495.37,369.84 495.72,369.84L527.94,369.84L527.94,381.03L493.36,381.03L493.36,381.04Z" style="fill:white;fill-rule:nonzero;"/>
                <path d="M493.36,380.04C491.75,380.04 490.29,379.65 488.97,378.86C487.65,378.07 486.6,377.02 485.82,375.71C485.03,374.39 484.64,372.93 484.64,371.32L484.64,346.34C484.64,344.73 485.03,343.27 485.82,341.95C486.61,340.63 487.66,339.58 488.97,338.8C490.29,338.01 491.75,337.62 493.36,337.62L526.94,337.62L526.94,346.81L495.72,346.81C495.09,346.81 494.61,346.97 494.28,347.28C493.95,347.6 493.78,348.09 493.78,348.75L493.78,368.9C493.78,369.53 493.95,370.01 494.28,370.34C494.61,370.67 495.09,370.84 495.72,370.84L526.94,370.84L526.94,380.03L493.36,380.03L493.36,380.04Z" style="fill:white;fill-rule:nonzero;"/>
                <path d="M574.53,381.04L574.53,364.42L551.5,364.42L551.5,381.04L540.37,381.04L540.37,336.62L551.5,336.62L551.5,353.24L574.53,353.24L574.53,336.62L585.66,336.62L585.66,381.04L574.53,381.04Z" style="fill:white;fill-rule:nonzero;"/>
                <path d="M541.37,380.04L541.37,337.63L550.5,337.63L550.5,354.24L575.54,354.24L575.54,337.63L584.67,337.63L584.67,380.04L575.54,380.04L575.54,363.43L550.5,363.43L550.5,380.04L541.37,380.04Z" style="fill:white;fill-rule:nonzero;"/>
                <path d="M659.18,381.04L659.18,367.37L637.14,367.37L637.14,381.04L626.01,381.04L626.01,346.34C626.01,344.55 626.45,342.9 627.33,341.44C628.2,339.99 629.39,338.81 630.86,337.94C632.35,337.07 633.98,336.62 635.73,336.62L660.65,336.62C662.43,336.62 664.08,337.06 665.55,337.94C667,338.81 668.18,339.98 669.07,341.43C669.97,342.9 670.42,344.55 670.42,346.34L670.42,381.04L659.17,381.04L659.18,381.04ZM659.18,356.18L659.18,347.81L637.14,347.81L637.14,356.18L659.18,356.18Z" style="fill:white;fill-rule:nonzero;"/>
                <path d="M627.02,346.34C627.02,344.73 627.41,343.27 628.2,341.95C628.99,340.63 630.05,339.58 631.38,338.8C632.71,338.01 634.17,337.62 635.74,337.62L660.66,337.62C662.27,337.62 663.73,338.01 665.05,338.8C666.37,339.59 667.43,340.64 668.23,341.95C669.03,343.27 669.44,344.73 669.44,346.34L669.44,380.04L660.19,380.04L660.19,366.37L636.15,366.37L636.15,380.04L627.02,380.04L627.02,346.34ZM660.19,357.18L660.19,346.81L636.15,346.81L636.15,357.18L660.19,357.18Z" style="fill:white;fill-rule:nonzero;"/>
                <path d="M693.11,381.04C691.32,381.04 689.68,380.6 688.21,379.72C686.76,378.85 685.58,377.68 684.71,376.22C683.83,374.75 683.39,373.1 683.39,371.32L683.39,346.34C683.39,344.55 683.83,342.91 684.71,341.44C685.58,339.99 686.75,338.81 688.21,337.94C689.68,337.06 691.33,336.62 693.11,336.62L727.69,336.62L727.69,347.81L695.47,347.81C695.22,347.81 694.89,347.84 694.71,348.01C694.59,348.12 694.52,348.39 694.52,348.75L694.52,368.9C694.52,369.25 694.59,369.5 694.73,369.63C694.87,369.77 695.12,369.84 695.47,369.84L727.69,369.84L727.69,381.03L693.11,381.03L693.11,381.04Z" style="fill:white;fill-rule:nonzero;"/>
                <path d="M693.11,380.04C691.5,380.04 690.04,379.65 688.72,378.86C687.4,378.07 686.35,377.02 685.57,375.71C684.78,374.39 684.39,372.93 684.39,371.32L684.39,346.34C684.39,344.73 684.78,343.27 685.57,341.95C686.36,340.63 687.41,339.58 688.72,338.8C690.04,338.01 691.5,337.62 693.11,337.62L726.69,337.62L726.69,346.81L695.47,346.81C694.84,346.81 694.36,346.97 694.03,347.28C693.7,347.6 693.53,348.09 693.53,348.75L693.53,368.9C693.53,369.53 693.7,370.01 694.03,370.34C694.36,370.67 694.84,370.84 695.47,370.84L726.69,370.84L726.69,380.03L693.11,380.03L693.11,380.04Z" style="fill:white;fill-rule:nonzero;"/>
                <path d="M773.35,381.04L773.35,367.37L751.31,367.37L751.31,381.04L740.18,381.04L740.18,346.34C740.18,344.55 740.62,342.9 741.5,341.44C742.37,339.99 743.56,338.81 745.03,337.94C746.52,337.07 748.15,336.62 749.9,336.62L774.82,336.62C776.6,336.62 778.25,337.06 779.72,337.94C781.17,338.81 782.35,339.98 783.24,341.43C784.14,342.9 784.59,344.55 784.59,346.34L784.59,381.04L773.34,381.04L773.35,381.04ZM773.35,356.18L773.35,347.81L751.31,347.81L751.31,356.18L773.35,356.18Z" style="fill:white;fill-rule:nonzero;"/>
                <path d="M741.18,346.34C741.18,344.73 741.57,343.27 742.36,341.95C743.15,340.63 744.21,339.58 745.54,338.8C746.87,338.01 748.33,337.62 749.9,337.62L774.82,337.62C776.43,337.62 777.89,338.01 779.21,338.8C780.53,339.59 781.59,340.64 782.39,341.95C783.19,343.27 783.6,344.73 783.6,346.34L783.6,380.04L774.35,380.04L774.35,366.37L750.31,366.37L750.31,380.04L741.18,380.04L741.18,346.34ZM774.35,357.18L774.35,346.81L750.31,346.81L750.31,357.18L774.35,357.18Z" style="fill:white;fill-rule:nonzero;"/>
                <path d="M797.68,381.04L797.68,336.63L832.32,336.63C834.1,336.63 835.75,337.07 837.22,337.95C838.67,338.82 839.85,339.99 840.74,341.44C841.64,342.91 842.09,344.56 842.09,346.35L842.09,371.33C842.09,373.08 841.64,374.72 840.74,376.21C839.85,377.68 838.67,378.87 837.21,379.73C835.74,380.61 834.09,381.05 832.31,381.05L797.67,381.05L797.68,381.04ZM830.85,369.85L830.85,347.82L808.76,347.82L808.76,369.85L830.85,369.85Z" style="fill:white;fill-rule:nonzero;"/>
                <path d="M798.68,380.05L798.68,337.63L832.32,337.63C833.93,337.63 835.39,338.02 836.71,338.81C838.03,339.6 839.09,340.65 839.89,341.96C840.69,343.28 841.1,344.74 841.1,346.35L841.1,371.33C841.1,372.9 840.7,374.36 839.89,375.69C839.08,377.03 838.02,378.09 836.71,378.87C835.39,379.66 833.93,380.05 832.32,380.05L798.68,380.05ZM831.85,370.85L831.85,346.82L807.76,346.82L807.76,370.85L831.85,370.85Z" style="fill:white;fill-rule:nonzero;"/>
                <path d="M855.05,381.04L855.05,336.62L896.23,336.62L896.23,347.81L866.3,347.81L866.3,353.24L890.39,353.24L890.39,364.42L866.3,364.42L866.3,369.85L896.23,369.85L896.23,381.04L855.05,381.04Z" style="fill:white;fill-rule:nonzero;"/>
                <path d="M856.05,380.04L856.05,337.63L895.22,337.63L895.22,346.82L865.3,346.82L865.3,354.24L889.39,354.24L889.39,363.43L865.3,363.43L865.3,370.85L895.22,370.85L895.22,380.04L856.05,380.04Z" style="fill:white;fill-rule:nonzero;"/>
                <path d="M945,381.04L945,354.34L931.4,370.58L917.73,354.38L917.73,381.04L906.6,381.04L906.6,336.62L917.49,336.62L931.39,353.21L945.24,336.62L956.19,336.62L956.19,381.04L945,381.04Z" style="fill:white;fill-rule:nonzero;"/>
                <path d="M907.6,380.04L907.6,337.63L917.02,337.63L931.39,354.77L945.7,337.63L955.18,337.63L955.18,380.04L945.99,380.04L945.99,351.59L931.38,369.03L916.71,351.65L916.71,380.04L907.58,380.04L907.6,380.04Z" style="fill:white;fill-rule:nonzero;"/>
                <path d="M985.3,381.04L985.3,364.52L964.7,336.62L978.06,336.62L990.89,352.75L1003.66,336.62L1017.14,336.62L996.49,364.58L996.49,381.04L985.3,381.04Z" style="fill:white;fill-rule:nonzero;"/>
                <path d="M986.3,380.04L986.3,364.19L966.68,337.62L977.58,337.62L990.89,354.35L1004.14,337.62L1015.16,337.62L995.48,364.25L995.48,380.04L986.29,380.04L986.3,380.04Z" style="fill:white;fill-rule:nonzero;"/>
            </g>
        </g>
    </g>
</svg>
